<?xml version="1.0" encoding="UTF-8" standalone="no"?><!DOCTYPE svg PUBLIC "-//W3C//DTD SVG 1.1//EN" "http://www.w3.org/Graphics/SVG/1.1/DTD/svg11.dtd"><svg width="100%" height="100%" viewBox="0 0 792 222" version="1.1" xmlns="http://www.w3.org/2000/svg" xmlns:xlink="http://www.w3.org/1999/xlink" xml:space="preserve" xmlns:serif="http://www.serif.com/" style="fill-rule:evenodd;clip-rule:evenodd;stroke-linejoin:round;stroke-miterlimit:1.41421;"><path d="M0,0l0,198.364c13.858,3.892 28.247,6.081 42.48,8.022c12.751,1.74 26.274,3.197 39.061,4.398c41.826,3.928 83.833,6.08 125.805,7.641c123.951,4.609 248.16,3.36 372.1,-0.964c55.219,-1.926 110.673,-3.885 165.665,-9.62c9.549,-0.995 22.578,-2.52 32.269,-4.442c2.626,-0.521 9.37,-1.886 12.822,-3.722c0.655,-0.348 1.315,-0.75 1.798,-1.313l0,-198.364l-792,0" style="fill:url(#_Linear1);"/><defs><linearGradient id="_Linear1" x1="0" y1="0" x2="1" y2="0" gradientUnits="userSpaceOnUse" gradientTransform="matrix(792,0,0,247.206,0,123.603)"><stop offset="0" style="stop-color:#25408f;stop-opacity:1"/><stop offset="0.42" style="stop-color:#2a4597;stop-opacity:1"/><stop offset="1" style="stop-color:#3451a9;stop-opacity:1"/></linearGradient></defs></svg>